<mxfile host="app.diagrams.net" modified="2024-01-17T09:11:27.920Z" agent="Mozilla/5.0 (Windows NT 10.0; Win64; x64) AppleWebKit/537.36 (KHTML, like Gecko) Chrome/120.0.0.0 Safari/537.36 Edg/120.0.0.0" version="22.1.20" etag="LlV6-bOkqWpmT5LPT3MY" type="device">
  <diagram id="KU3Yf4whULIWC-VbaNfd" name="第 1 页">
    <mxGraphModel dx="725" dy="403" grid="1" gridSize="10" guides="1" tooltips="1" connect="1" arrows="1" fold="1" page="1" pageScale="1" pageWidth="827" pageHeight="1169" math="0" shadow="0">
      <root>
        <mxCell id="0" />
        <mxCell id="1" parent="0" />
        <mxCell id="p_8X4fLVUXuclzlYD0vz-23" style="edgeStyle=orthogonalEdgeStyle;rounded=0;orthogonalLoop=1;jettySize=auto;html=1;" edge="1" parent="1" source="p_8X4fLVUXuclzlYD0vz-19">
          <mxGeometry relative="1" as="geometry">
            <mxPoint x="540" y="210" as="targetPoint" />
          </mxGeometry>
        </mxCell>
        <mxCell id="p_8X4fLVUXuclzlYD0vz-19" value="" style="image;html=1;image=img/lib/clip_art/networking/Wireless_Router_128x128.png" vertex="1" parent="1">
          <mxGeometry x="394" y="180" width="40" height="60" as="geometry" />
        </mxCell>
        <mxCell id="p_8X4fLVUXuclzlYD0vz-20" value="" style="sketch=0;aspect=fixed;pointerEvents=1;shadow=0;dashed=0;html=1;strokeColor=none;labelPosition=center;verticalLabelPosition=bottom;verticalAlign=top;align=center;fillColor=#00188D;shape=mxgraph.azure.computer" vertex="1" parent="1">
          <mxGeometry x="240" y="187.5" width="50" height="45" as="geometry" />
        </mxCell>
        <mxCell id="p_8X4fLVUXuclzlYD0vz-22" style="edgeStyle=orthogonalEdgeStyle;rounded=0;orthogonalLoop=1;jettySize=auto;html=1;" edge="1" parent="1" source="p_8X4fLVUXuclzlYD0vz-20" target="p_8X4fLVUXuclzlYD0vz-19">
          <mxGeometry relative="1" as="geometry" />
        </mxCell>
        <mxCell id="p_8X4fLVUXuclzlYD0vz-25" value="" style="sketch=0;aspect=fixed;pointerEvents=1;shadow=0;dashed=0;html=1;strokeColor=none;labelPosition=center;verticalLabelPosition=bottom;verticalAlign=top;align=center;fillColor=#00188D;shape=mxgraph.azure.computer" vertex="1" parent="1">
          <mxGeometry x="540" y="187.5" width="50" height="45" as="geometry" />
        </mxCell>
        <mxCell id="p_8X4fLVUXuclzlYD0vz-26" value="01010101&lt;br&gt;" style="text;html=1;align=center;verticalAlign=middle;resizable=0;points=[];autosize=1;strokeColor=none;fillColor=none;" vertex="1" parent="1">
          <mxGeometry x="320" y="180" width="80" height="30" as="geometry" />
        </mxCell>
        <mxCell id="p_8X4fLVUXuclzlYD0vz-27" value="带宽：100b/s" style="text;html=1;align=center;verticalAlign=middle;resizable=0;points=[];autosize=1;strokeColor=none;fillColor=none;" vertex="1" parent="1">
          <mxGeometry x="215" y="232.5" width="100" height="30" as="geometry" />
        </mxCell>
        <mxCell id="p_8X4fLVUXuclzlYD0vz-30" style="edgeStyle=orthogonalEdgeStyle;rounded=0;orthogonalLoop=1;jettySize=auto;html=1;" edge="1" parent="1" source="p_8X4fLVUXuclzlYD0vz-28">
          <mxGeometry relative="1" as="geometry">
            <mxPoint x="500" y="210" as="targetPoint" />
          </mxGeometry>
        </mxCell>
        <mxCell id="p_8X4fLVUXuclzlYD0vz-28" value="&lt;font style=&quot;font-size: 9px;&quot;&gt;信道长度：100m&lt;/font&gt;" style="text;html=1;align=center;verticalAlign=middle;resizable=0;points=[];autosize=1;strokeColor=none;fillColor=none;" vertex="1" parent="1">
          <mxGeometry x="374" y="240" width="90" height="30" as="geometry" />
        </mxCell>
        <mxCell id="p_8X4fLVUXuclzlYD0vz-29" style="edgeStyle=orthogonalEdgeStyle;rounded=0;orthogonalLoop=1;jettySize=auto;html=1;entryX=0.335;entryY=1.108;entryDx=0;entryDy=0;entryPerimeter=0;" edge="1" parent="1" source="p_8X4fLVUXuclzlYD0vz-28" target="p_8X4fLVUXuclzlYD0vz-26">
          <mxGeometry relative="1" as="geometry">
            <Array as="points">
              <mxPoint x="347" y="255" />
            </Array>
          </mxGeometry>
        </mxCell>
        <mxCell id="p_8X4fLVUXuclzlYD0vz-32" value="电磁波传播速率：10m/s" style="text;html=1;align=center;verticalAlign=middle;resizable=0;points=[];autosize=1;strokeColor=none;fillColor=none;" vertex="1" parent="1">
          <mxGeometry x="224" y="128" width="150" height="30" as="geometry" />
        </mxCell>
        <mxCell id="p_8X4fLVUXuclzlYD0vz-33" value="&lt;b&gt;t1=8/100=0.08s&lt;/b&gt;" style="text;html=1;align=center;verticalAlign=middle;resizable=0;points=[];autosize=1;strokeColor=none;fillColor=none;" vertex="1" parent="1">
          <mxGeometry x="205" y="258" width="110" height="30" as="geometry" />
        </mxCell>
        <mxCell id="p_8X4fLVUXuclzlYD0vz-34" value="&lt;b&gt;t2=100/10=10s&lt;/b&gt;" style="text;html=1;align=center;verticalAlign=middle;resizable=0;points=[];autosize=1;strokeColor=none;fillColor=none;" vertex="1" parent="1">
          <mxGeometry x="364" y="258" width="100" height="30" as="geometry" />
        </mxCell>
        <mxCell id="p_8X4fLVUXuclzlYD0vz-38" style="edgeStyle=orthogonalEdgeStyle;rounded=0;orthogonalLoop=1;jettySize=auto;html=1;" edge="1" parent="1" source="p_8X4fLVUXuclzlYD0vz-35">
          <mxGeometry relative="1" as="geometry">
            <mxPoint x="413.9999999999998" y="170" as="targetPoint" />
            <Array as="points">
              <mxPoint x="414" y="170" />
              <mxPoint x="414" y="170" />
            </Array>
          </mxGeometry>
        </mxCell>
        <mxCell id="p_8X4fLVUXuclzlYD0vz-35" value="t3+t4" style="text;html=1;align=center;verticalAlign=middle;resizable=0;points=[];autosize=1;strokeColor=none;fillColor=none;fontStyle=1" vertex="1" parent="1">
          <mxGeometry x="389" y="110" width="50" height="30" as="geometry" />
        </mxCell>
      </root>
    </mxGraphModel>
  </diagram>
</mxfile>
